# xmcd
#
# Track frame offsets: 
#        150
#        11862
#        31206
#        44242
#        57240
#        80059
#        97022
#        112670
#        130161
#        142343
#        154045
#        166131
#        187932
#        208456
#        221214
#        241287
#
# Disc length: 3389 seconds
#
# Revision: 7
# Processed by: cddbd v1.5.2PL0 Copyright (c) Steve Scherf et al.
# Submitted via: ExactAudioCopy v0.95b4
#
DISCID=ed0d3b10
DTITLE=Fleetwood Mac - Blue Horizon Box Disc 2 Mr. Wonderful 
DYEAR=1999
DGENRE=Blues
TTITLE0=Stop Messin' Around (Take 4)
TTITLE1=I've Lost My Baby
TTITLE2=Rollin' Man
TTITLE3=Dust My Broom
TTITLE4=Love That Burns
TTITLE5=Doctor Brown
TTITLE6=Need Your Love Tonight
TTITLE7=If You Be My Baby
TTITLE8=Evenin' Boogie
TTITLE9=Lacy Poker Blues
TTITLE10=Coming Home
TTITLE11=Trying So Hard To Forget
TTITLE12=Stop Messin' Round (Take 1, Take 2, Take 3)
TTITLE13=Stop Messin' Round (Take 5)
TTITLE14=I Held My Baby Last Night
TTITLE15=Mystery Boogie
EXTD=
EXTT0=
EXTT1=
EXTT2=
EXTT3=
EXTT4=
EXTT5=
EXTT6=
EXTT7=
EXTT8=
EXTT9=
EXTT10=
EXTT11=
EXTT12=
EXTT13=
EXTT14=
EXTT15=
PLAYORDER=
